<mxfile modified="2020-03-02T23:02:19.411Z" host="www.draw.io" agent="Mozilla/5.0 (Windows NT 6.1; Win64; x64) AppleWebKit/537.36 (KHTML, like Gecko) Chrome/80.0.3987.106 Safari/537.36" etag="vLZIaBEtjhSi0s4kllO1" version="12.7.9" type="github" pages="3">
  <diagram id="YjQGv2frl0r7xJmvuS65" name="Page-1">
    <mxGraphModel dx="2893" dy="1500" grid="1" gridSize="10" guides="1" tooltips="1" connect="1" arrows="1" fold="1" page="1" pageScale="1" pageWidth="1169" pageHeight="827" math="1" shadow="0">
      <root>
        <mxCell id="0" />
        <mxCell id="1" parent="0" />
        <mxCell id="Y4AjE-tI9-dyr8vuDEdy-201" value="" style="strokeWidth=3;html=1;shape=mxgraph.flowchart.annotation_2;align=left;rounded=0;shadow=0;glass=0;comic=0;fillColor=#FFFFCC;direction=north;" parent="1" vertex="1">
          <mxGeometry x="120" y="1030.5" width="540" height="50" as="geometry" />
        </mxCell>
        <mxCell id="Y4AjE-tI9-dyr8vuDEdy-202" value="&lt;font size=&quot;1&quot;&gt;&lt;b style=&quot;font-size: 30px&quot;&gt;T=49&lt;/b&gt;&lt;/font&gt;" style="text;html=1;strokeColor=none;fillColor=none;align=center;verticalAlign=middle;whiteSpace=wrap;rounded=0;shadow=0;glass=0;comic=0;" parent="1" vertex="1">
          <mxGeometry x="323" y="1086.5" width="134" height="40" as="geometry" />
        </mxCell>
        <mxCell id="Y4AjE-tI9-dyr8vuDEdy-203" value="&lt;div style=&quot;text-align: center ; font-size: 25px&quot;&gt;&lt;font face=&quot;Times New Roman&quot; style=&quot;font-size: 25px&quot;&gt;Original Sequence&lt;/font&gt;&lt;/div&gt;&lt;div style=&quot;text-align: left ; font-size: 25px&quot;&gt;&lt;font face=&quot;Times New Roman&quot; style=&quot;font-size: 25px&quot;&gt;&lt;span&gt;GKDLMEKVKSPELQAEAKSYFEKSKEQLTPLIKKAGTELVNFLSYFVEL&lt;/span&gt;&lt;br&gt;&lt;/font&gt;&lt;/div&gt;&lt;div style=&quot;text-align: left ; font-size: 25px&quot;&gt;&lt;font face=&quot;Times New Roman&quot; style=&quot;font-size: 25px&quot;&gt;&lt;br&gt;&lt;/font&gt;&lt;/div&gt;&lt;font&gt;&lt;div style=&quot;font-size: 25px ; text-align: center&quot;&gt;&lt;span&gt;&lt;font face=&quot;Times New Roman&quot; style=&quot;font-size: 25px&quot;&gt;Biological Words&lt;/font&gt;&lt;/span&gt;&lt;/div&gt;&lt;font face=&quot;Times New Roman&quot;&gt;&lt;font style=&quot;font-size: 25px&quot;&gt;&lt;span&gt;GKD&amp;nbsp;&lt;/span&gt;&lt;/font&gt;&lt;span style=&quot;font-size: 25px&quot;&gt;KDL&amp;nbsp;&lt;/span&gt;&lt;span style=&quot;font-size: 25px&quot;&gt;DLM&amp;nbsp;&lt;/span&gt;&lt;span style=&quot;font-size: 25px&quot;&gt;LME&amp;nbsp;&lt;/span&gt;&lt;span style=&quot;font-size: 25px&quot;&gt;MEK&amp;nbsp;&lt;/span&gt;&lt;span style=&quot;font-size: 25px&quot;&gt;EKV&amp;nbsp;&lt;/span&gt;&lt;font style=&quot;font-size: 25px&quot;&gt;&lt;span&gt;KVK&amp;nbsp;&lt;/span&gt;&lt;/font&gt;&lt;span style=&quot;font-size: 25px&quot;&gt;VKS&amp;nbsp;&lt;/span&gt;&lt;span style=&quot;font-size: 25px&quot;&gt;KSP&amp;nbsp;&lt;/span&gt;&lt;font style=&quot;font-size: 25px&quot;&gt;&lt;span&gt;SPE&amp;nbsp;&lt;/span&gt;&lt;/font&gt;&lt;span style=&quot;font-size: 25px&quot;&gt;PEL&amp;nbsp;&lt;/span&gt;&lt;span style=&quot;font-size: 25px&quot;&gt;ELQ&amp;nbsp;LQA&amp;nbsp;&lt;/span&gt;&lt;font style=&quot;font-size: 25px&quot;&gt;&lt;b&gt;... ...&lt;/b&gt;&lt;/font&gt;&lt;br&gt;&lt;/font&gt;&lt;div style=&quot;font-size: 25px&quot;&gt;&lt;font face=&quot;Times New Roman&quot;&gt;&lt;span&gt;&lt;br&gt;&lt;/span&gt;&lt;/font&gt;&lt;/div&gt;&lt;div style=&quot;font-size: 25px&quot;&gt;&lt;span&gt;&lt;br&gt;&lt;/span&gt;&lt;/div&gt;&lt;/font&gt;" style="text;html=1;strokeColor=none;fillColor=none;align=left;verticalAlign=top;whiteSpace=wrap;rounded=0;" parent="1" vertex="1">
          <mxGeometry x="40" y="826.5" width="802" height="160" as="geometry" />
        </mxCell>
        <mxCell id="Y4AjE-tI9-dyr8vuDEdy-218" value="&lt;div style=&quot;text-align: left ; font-size: 25px&quot;&gt;&lt;font face=&quot;Times New Roman&quot; style=&quot;font-size: 25px&quot;&gt;a)&lt;/font&gt;&lt;/div&gt;&lt;div style=&quot;text-align: left ; font-size: 25px&quot;&gt;&lt;font face=&quot;Times New Roman&quot; style=&quot;font-size: 25px&quot;&gt;&amp;nbsp; &amp;nbsp; &amp;nbsp; &amp;nbsp; &amp;nbsp; &amp;nbsp; &amp;nbsp; &amp;nbsp; &amp;nbsp; &amp;nbsp; &amp;nbsp; &amp;nbsp; &amp;nbsp; &amp;nbsp; &amp;nbsp; &amp;nbsp; &amp;nbsp; &amp;nbsp; &amp;nbsp; &amp;nbsp; &amp;nbsp; &amp;nbsp; &amp;nbsp; &amp;nbsp; &amp;nbsp;Original Sequence&lt;/font&gt;&lt;/div&gt;&lt;div style=&quot;font-size: 25px&quot;&gt;&lt;font face=&quot;Times New Roman&quot; style=&quot;font-size: 25px&quot;&gt;&lt;span&gt;GKDLMEKVKSPELQAEAKSYFEKSKEQLTPLIKKAGTELVNFLSYFVEL&lt;/span&gt;&lt;/font&gt;&lt;/div&gt;&lt;font face=&quot;Times New Roman&quot; style=&quot;font-size: 25px&quot;&gt;&lt;font style=&quot;font-size: 25px&quot;&gt;&lt;div style=&quot;text-align: center&quot;&gt;&lt;span&gt;&lt;font style=&quot;font-size: 25px&quot;&gt;Biological Words&lt;/font&gt;&lt;/span&gt;&lt;/div&gt;&lt;font style=&quot;font-size: 25px&quot;&gt;&lt;font style=&quot;font-size: 25px&quot;&gt;&lt;span&gt;GKD&amp;nbsp;&lt;/span&gt;&lt;/font&gt;&lt;span&gt;KDL&amp;nbsp;&lt;/span&gt;&lt;span&gt;DLM&amp;nbsp;&lt;/span&gt;&lt;span&gt;LME&amp;nbsp;&lt;/span&gt;&lt;span&gt;MEK&amp;nbsp;&lt;/span&gt;&lt;span&gt;EKV&amp;nbsp;&lt;/span&gt;&lt;font style=&quot;font-size: 25px&quot;&gt;&lt;span&gt;KVK&amp;nbsp;&lt;/span&gt;&lt;/font&gt;&lt;span&gt;VKS&amp;nbsp;&lt;/span&gt;&lt;span&gt;KSP&amp;nbsp;&lt;/span&gt;&lt;font style=&quot;font-size: 25px&quot;&gt;&lt;span&gt;SPE&amp;nbsp;&lt;/span&gt;&lt;/font&gt;&lt;span&gt;PEL&amp;nbsp;&lt;/span&gt;&lt;span&gt;ELQ&amp;nbsp;LQA&amp;nbsp;&lt;/span&gt;&lt;font style=&quot;font-size: 25px&quot;&gt;&lt;b&gt;... ...&lt;/b&gt;&lt;/font&gt;&lt;br&gt;&lt;/font&gt;&lt;div&gt;&lt;span&gt;&lt;font style=&quot;font-size: 25px&quot;&gt;&lt;br&gt;&lt;/font&gt;&lt;/span&gt;&lt;/div&gt;&lt;div&gt;&lt;span&gt;&lt;font style=&quot;font-size: 25px&quot;&gt;b)&lt;/font&gt;&lt;/span&gt;&lt;/div&gt;&lt;div&gt;&lt;span&gt;&lt;font style=&quot;font-size: 25px&quot;&gt;&amp;nbsp; &amp;nbsp; &amp;nbsp; &amp;nbsp; &amp;nbsp; &amp;nbsp; &amp;nbsp; &amp;nbsp; &amp;nbsp; &amp;nbsp; &amp;nbsp; &amp;nbsp; &amp;nbsp; &amp;nbsp; &amp;nbsp; &amp;nbsp; &amp;nbsp; &amp;nbsp; &amp;nbsp; &amp;nbsp; &amp;nbsp; &amp;nbsp; &amp;nbsp; &amp;nbsp; &amp;nbsp; Positive Example&lt;/font&gt;&lt;/span&gt;&lt;/div&gt;&lt;div&gt;&lt;span&gt;&lt;font style=&quot;font-size: 25px&quot;&gt;(LME , MEK) , (LME , EKV) , (LME , DLM) , (LME , KDL)&lt;/font&gt;&lt;/span&gt;&lt;/div&gt;&lt;div style=&quot;text-align: center&quot;&gt;&lt;span&gt;&lt;font style=&quot;font-size: 25px&quot;&gt;&amp;nbsp; &amp;nbsp;Negative Example&lt;/font&gt;&lt;/span&gt;&lt;/div&gt;&lt;div&gt;&lt;font style=&quot;font-size: 25px&quot;&gt;&lt;font style=&quot;font-size: 25px&quot;&gt;(LME , GKD) , (LME , KSP) , (LME , PEL) , (LME , LQA&lt;/font&gt;) &lt;font style=&quot;font-size: 25px&quot;&gt;&lt;b&gt;... ...&lt;/b&gt;&lt;/font&gt;&lt;/font&gt;&lt;br&gt;&lt;/div&gt;&lt;div&gt;&lt;font style=&quot;font-size: 25px&quot;&gt;&lt;font style=&quot;font-size: 25px&quot;&gt;&lt;b&gt;&lt;br&gt;&lt;/b&gt;&lt;/font&gt;&lt;/font&gt;&lt;/div&gt;&lt;div&gt;&lt;font style=&quot;font-size: 25px&quot;&gt;&lt;font style=&quot;font-size: 25px&quot;&gt;c)&lt;b&gt;&lt;br&gt;&lt;/b&gt;&lt;/font&gt;&lt;/font&gt;&lt;/div&gt;&lt;div&gt;&lt;font style=&quot;font-size: 25px&quot;&gt;&lt;font style=&quot;font-size: 25px&quot;&gt;GKD&amp;nbsp;KDL&amp;nbsp;DLM&amp;nbsp;LME&amp;nbsp;MEK&amp;nbsp;EKV&amp;nbsp;KVK&amp;nbsp;VKS&amp;nbsp;KSP&amp;nbsp;SPE&amp;nbsp;PEL&amp;nbsp;ELQ&amp;nbsp;LQA&amp;nbsp;&lt;b&gt;... ...&lt;/b&gt;&lt;br&gt;&lt;/font&gt;&lt;/font&gt;&lt;/div&gt;&lt;/font&gt;&lt;/font&gt;" style="text;html=1;strokeColor=none;fillColor=none;align=left;verticalAlign=top;whiteSpace=wrap;rounded=0;" parent="1" vertex="1">
          <mxGeometry x="40" y="100" width="802" height="580" as="geometry" />
        </mxCell>
        <mxCell id="Y4AjE-tI9-dyr8vuDEdy-220" value="&lt;font style=&quot;font-size: 25px&quot;&gt;(p,q)&lt;/font&gt;" style="text;html=1;strokeColor=none;fillColor=none;align=center;verticalAlign=middle;whiteSpace=wrap;rounded=0;fontFamily=Times New Roman;fontSize=25;" parent="1" vertex="1">
          <mxGeometry x="530.5" y="308.5" width="73" height="46" as="geometry" />
        </mxCell>
        <mxCell id="Y4AjE-tI9-dyr8vuDEdy-221" value="&lt;font style=&quot;font-size: 25px&quot;&gt;(p,q*)&lt;/font&gt;" style="text;html=1;strokeColor=none;fillColor=none;align=center;verticalAlign=middle;whiteSpace=wrap;rounded=0;fontFamily=Times New Roman;fontSize=25;" parent="1" vertex="1">
          <mxGeometry x="546" y="369.5" width="73" height="46" as="geometry" />
        </mxCell>
        <mxCell id="Y4AjE-tI9-dyr8vuDEdy-223" value="" style="rounded=0;whiteSpace=wrap;html=1;fontFamily=Times New Roman;fontSize=25;gradientColor=none;fillColor=none;strokeColor=#FF363C;" parent="1" vertex="1">
          <mxGeometry x="217" y="493.5" width="60" height="40" as="geometry" />
        </mxCell>
        <mxCell id="J5dX30pIUV-a4Wgjbu-6-1" value="" style="strokeWidth=1;html=1;shape=mxgraph.flowchart.annotation_2;align=left;rounded=0;shadow=0;glass=0;comic=0;fillColor=none;direction=north;strokeColor=#007FFF;" parent="1" vertex="1">
          <mxGeometry x="101" y="527" width="290" height="43" as="geometry" />
        </mxCell>
        <mxCell id="J5dX30pIUV-a4Wgjbu-6-2" value="" style="strokeWidth=1;html=1;shape=mxgraph.flowchart.annotation_2;align=left;rounded=0;shadow=0;glass=0;comic=0;fillColor=none;direction=north;" parent="1" vertex="1">
          <mxGeometry x="42" y="584" width="58" height="50" as="geometry" />
        </mxCell>
        <mxCell id="J5dX30pIUV-a4Wgjbu-6-3" value="" style="strokeWidth=1;html=1;shape=mxgraph.flowchart.annotation_2;align=left;rounded=0;shadow=0;glass=0;comic=0;fillColor=#FFFFCC;direction=north;" parent="1" vertex="1">
          <mxGeometry x="391" y="584" width="439" height="50" as="geometry" />
        </mxCell>
        <mxCell id="J5dX30pIUV-a4Wgjbu-6-4" value="&lt;font style=&quot;font-size: 25px&quot;&gt;D*&lt;/font&gt;" style="text;html=1;strokeColor=none;fillColor=none;align=center;verticalAlign=middle;whiteSpace=wrap;rounded=0;fontFamily=Times New Roman;fontSize=25;" parent="1" vertex="1">
          <mxGeometry x="231" y="564" width="40" height="46" as="geometry" />
        </mxCell>
        <mxCell id="J5dX30pIUV-a4Wgjbu-6-6" value="" style="endArrow=none;html=1;entryX=0;entryY=0.5;entryDx=0;entryDy=0;entryPerimeter=0;exitX=0;exitY=0.5;exitDx=0;exitDy=0;exitPerimeter=0;endFill=0;" parent="1" source="J5dX30pIUV-a4Wgjbu-6-2" target="J5dX30pIUV-a4Wgjbu-6-3" edge="1">
          <mxGeometry width="50" height="50" relative="1" as="geometry">
            <mxPoint x="167" y="688.5" as="sourcePoint" />
            <mxPoint x="217" y="638.5" as="targetPoint" />
          </mxGeometry>
        </mxCell>
        <mxCell id="J5dX30pIUV-a4Wgjbu-6-7" value="&lt;font style=&quot;font-size: 25px&quot;&gt;D&lt;/font&gt;" style="text;html=1;strokeColor=none;fillColor=none;align=center;verticalAlign=middle;whiteSpace=wrap;rounded=0;fontFamily=Times New Roman;fontSize=25;" parent="1" vertex="1">
          <mxGeometry x="303" y="629.5" width="40" height="46" as="geometry" />
        </mxCell>
        <mxCell id="gdi8St-hEkJIE85MNaDh-1" value="&lt;div style=&quot;text-align: left ; font-size: 25px&quot;&gt;&lt;font face=&quot;Times New Roman&quot; style=&quot;font-size: 25px&quot;&gt;a)&lt;/font&gt;&lt;/div&gt;&lt;div style=&quot;text-align: left ; font-size: 25px&quot;&gt;&lt;font face=&quot;Times New Roman&quot; style=&quot;font-size: 25px&quot;&gt;&amp;nbsp; &amp;nbsp; &amp;nbsp; &amp;nbsp; &amp;nbsp; &amp;nbsp; &amp;nbsp; &amp;nbsp; &amp;nbsp; &amp;nbsp; &amp;nbsp; &amp;nbsp; &amp;nbsp; &amp;nbsp; &amp;nbsp; &amp;nbsp; &amp;nbsp; &amp;nbsp; &amp;nbsp; &amp;nbsp; &amp;nbsp; &amp;nbsp; &amp;nbsp; &amp;nbsp; &amp;nbsp;Original Sequence&lt;/font&gt;&lt;/div&gt;&lt;div style=&quot;font-size: 25px&quot;&gt;&lt;font face=&quot;Times New Roman&quot; style=&quot;font-size: 25px&quot;&gt;&lt;span&gt;GKDLMEKVKSPELQAEAKSYFEKSKEQLTPLIKKAGTELVNFLSYFVEL&lt;/span&gt;&lt;/font&gt;&lt;/div&gt;&lt;font face=&quot;Times New Roman&quot; style=&quot;font-size: 25px&quot;&gt;&lt;font style=&quot;font-size: 25px&quot;&gt;&lt;div style=&quot;text-align: center&quot;&gt;&lt;span&gt;&lt;font style=&quot;font-size: 25px&quot;&gt;Biological Words&lt;/font&gt;&lt;/span&gt;&lt;/div&gt;&lt;font style=&quot;font-size: 25px&quot;&gt;&lt;font style=&quot;font-size: 25px&quot;&gt;&lt;span style=&quot;background-color: rgb(255 , 176 , 197)&quot;&gt;GKD&lt;/span&gt;&amp;nbsp;&lt;/font&gt;&lt;span style=&quot;background-color: rgb(171 , 255 , 196)&quot;&gt;KDL&amp;nbsp;DLM&lt;/span&gt;&amp;nbsp;&lt;span style=&quot;background-color: rgb(176 , 173 , 255)&quot;&gt;LME&lt;/span&gt;&amp;nbsp;&lt;span style=&quot;background-color: rgb(171 , 255 , 196)&quot;&gt;MEK&amp;nbsp;EKV&lt;/span&gt;&amp;nbsp;&lt;span style=&quot;background-color: rgb(255 , 176 , 197)&quot;&gt;&lt;font style=&quot;font-size: 25px&quot;&gt;&lt;span&gt;KVK&amp;nbsp;&lt;/span&gt;&lt;/font&gt;VKS&amp;nbsp;KSP&amp;nbsp;&lt;font style=&quot;font-size: 25px&quot;&gt;&lt;span&gt;SPE&amp;nbsp;&lt;/span&gt;&lt;/font&gt;PEL&amp;nbsp;ELQ&amp;nbsp;LQA&amp;nbsp;&lt;font style=&quot;font-size: 25px&quot;&gt;&lt;b&gt;... ...&lt;/b&gt;&lt;/font&gt;&lt;/span&gt;&lt;br&gt;&lt;/font&gt;&lt;div&gt;&lt;div&gt;&lt;br&gt;&lt;/div&gt;&lt;div&gt;b)&lt;/div&gt;&lt;div&gt;D&amp;nbsp; &amp;nbsp;:&amp;nbsp; &amp;nbsp;&lt;span style=&quot;background-color: rgb(171 , 255 , 196)&quot;&gt;KDL&amp;nbsp;DLM MEK&amp;nbsp;EKV&lt;/span&gt;&lt;/div&gt;&lt;div&gt;&lt;span&gt;D&lt;/span&gt;*&amp;nbsp;&lt;span&gt;:&amp;nbsp; &amp;nbsp;&lt;/span&gt;&lt;span style=&quot;background-color: rgb(255 , 176 , 197)&quot;&gt;&lt;span&gt;GKD&amp;nbsp;&lt;/span&gt;&lt;span&gt;KVK&amp;nbsp;VKS&amp;nbsp;KSP&amp;nbsp;SPE&amp;nbsp;PEL&amp;nbsp;ELQ&amp;nbsp;LQA&amp;nbsp;&lt;/span&gt;&lt;b&gt;... ...&lt;/b&gt;&lt;/span&gt;&lt;br&gt;&lt;/div&gt;&lt;/div&gt;&lt;div&gt;&lt;span&gt;&lt;font style=&quot;font-size: 25px&quot;&gt;&lt;br&gt;&lt;/font&gt;&lt;/span&gt;&lt;/div&gt;&lt;div&gt;&lt;span&gt;&lt;font style=&quot;font-size: 25px&quot;&gt;c)&lt;/font&gt;&lt;/span&gt;&lt;/div&gt;&lt;div style=&quot;text-align: center&quot;&gt;&lt;span&gt;&lt;font style=&quot;font-size: 25px&quot;&gt;Positive Example:(p,q)&lt;/font&gt;&lt;/span&gt;&lt;/div&gt;&lt;div&gt;(&lt;span style=&quot;background-color: rgb(176 , 173 , 255)&quot;&gt;LME&lt;/span&gt; , &lt;span style=&quot;background-color: rgb(171 , 255 , 196)&quot;&gt;KDL&lt;/span&gt;) , (&lt;span style=&quot;background-color: rgb(176 , 173 , 255)&quot;&gt;LME&lt;/span&gt; , &lt;span style=&quot;background-color: rgb(171 , 255 , 196)&quot;&gt;DLM&lt;/span&gt;) , (&lt;span style=&quot;background-color: rgb(176 , 173 , 255)&quot;&gt;LME&lt;/span&gt; , &lt;span style=&quot;background-color: rgb(171 , 255 , 196)&quot;&gt;MEK&lt;/span&gt;) , (&lt;span style=&quot;background-color: rgb(176 , 173 , 255)&quot;&gt;LME&lt;/span&gt; , &lt;span style=&quot;background-color: rgb(171 , 255 , 196)&quot;&gt;EKV&lt;/span&gt;)&lt;/div&gt;&lt;div&gt;&lt;span&gt;&lt;font style=&quot;font-size: 25px&quot;&gt;&amp;nbsp; &amp;nbsp; &amp;nbsp; &amp;nbsp; &amp;nbsp; &amp;nbsp; &amp;nbsp; &amp;nbsp; &amp;nbsp; &amp;nbsp; &amp;nbsp; &amp;nbsp; &amp;nbsp; &amp;nbsp; &amp;nbsp; &amp;nbsp; &amp;nbsp; &amp;nbsp; &amp;nbsp; &amp;nbsp; &amp;nbsp; &amp;nbsp; Negative Example:(p,q*)&lt;/font&gt;&lt;/span&gt;&lt;/div&gt;&lt;div&gt;&lt;font style=&quot;font-size: 25px&quot;&gt;&lt;font style=&quot;font-size: 25px&quot;&gt;(&lt;span style=&quot;background-color: rgb(176 , 173 , 255)&quot;&gt;LME&lt;/span&gt; , &lt;span style=&quot;background-color: rgb(255 , 176 , 197)&quot;&gt;GKD&lt;/span&gt;) , (&lt;span style=&quot;background-color: rgb(176 , 173 , 255)&quot;&gt;LME&lt;/span&gt; , &lt;span style=&quot;background-color: rgb(255 , 176 , 197)&quot;&gt;KVK&lt;/span&gt;) , (&lt;span style=&quot;background-color: rgb(176 , 173 , 255)&quot;&gt;LME&lt;/span&gt; , &lt;span style=&quot;background-color: rgb(255 , 176 , 197)&quot;&gt;VKS&lt;/span&gt;) , (&lt;span style=&quot;background-color: rgb(176 , 173 , 255)&quot;&gt;LME&lt;/span&gt; , &lt;span style=&quot;background-color: rgb(255 , 176 , 197)&quot;&gt;KSP&lt;/span&gt;&lt;/font&gt;) &lt;font style=&quot;font-size: 25px&quot;&gt;&lt;b&gt;... ...&lt;/b&gt;&lt;/font&gt;&lt;/font&gt;&lt;/div&gt;&lt;/font&gt;&lt;/font&gt;" style="text;html=1;strokeColor=none;fillColor=none;align=left;verticalAlign=top;whiteSpace=wrap;rounded=0;" parent="1" vertex="1">
          <mxGeometry x="1348" y="59" width="802" height="481" as="geometry" />
        </mxCell>
        <mxCell id="gdi8St-hEkJIE85MNaDh-2" value="&lt;font style=&quot;font-size: 25px&quot;&gt;D*&lt;/font&gt;" style="text;html=1;strokeColor=none;fillColor=none;align=center;verticalAlign=middle;whiteSpace=wrap;rounded=0;fontFamily=Times New Roman;fontSize=25;" parent="1" vertex="1">
          <mxGeometry x="1070" y="304.5" width="40" height="46" as="geometry" />
        </mxCell>
        <mxCell id="KjZFIzzQjEhoWAxsZKbL-1" value="&lt;div style=&quot;text-align: left ; font-size: 25px&quot;&gt;&lt;font face=&quot;Times New Roman&quot; style=&quot;font-size: 25px&quot;&gt;a)&lt;/font&gt;&lt;/div&gt;&lt;div style=&quot;text-align: left ; font-size: 25px&quot;&gt;&lt;font face=&quot;Times New Roman&quot; style=&quot;font-size: 25px&quot;&gt;&amp;nbsp; &amp;nbsp; &amp;nbsp; &amp;nbsp; &amp;nbsp; &amp;nbsp; &amp;nbsp; &amp;nbsp; &amp;nbsp; &amp;nbsp; &amp;nbsp; &amp;nbsp; &amp;nbsp; &amp;nbsp; &amp;nbsp; &amp;nbsp; &amp;nbsp; &amp;nbsp; &amp;nbsp; &amp;nbsp; &amp;nbsp; &amp;nbsp; &amp;nbsp; &amp;nbsp; &amp;nbsp; &amp;nbsp; &amp;nbsp;&lt;/font&gt;&lt;font style=&quot;font-size: 25px&quot; face=&quot;宋体&quot;&gt;&lt;b&gt;原始序列&lt;/b&gt;&lt;/font&gt;&lt;/div&gt;&lt;div style=&quot;font-size: 25px&quot;&gt;&lt;font face=&quot;Times New Roman&quot; style=&quot;font-size: 25px&quot;&gt;&lt;span&gt;GKDLMEKVKSPELQAEAKSYFEKSKEQLTPLIKKAGTELVNFLSYFVEL&amp;nbsp; &amp;nbsp; &amp;nbsp; &amp;nbsp; &amp;nbsp; &amp;nbsp; &amp;nbsp; &amp;nbsp; &amp;nbsp; &amp;nbsp; &amp;nbsp; &amp;nbsp; &amp;nbsp; &amp;nbsp; &amp;nbsp; &amp;nbsp; &amp;nbsp; &amp;nbsp; &amp;nbsp; &amp;nbsp; &amp;nbsp; &amp;nbsp; &amp;nbsp; &amp;nbsp; &amp;nbsp; &amp;nbsp; &amp;nbsp; &amp;nbsp;&lt;/span&gt;&lt;/font&gt;&lt;span style=&quot;text-align: center&quot;&gt;&lt;b&gt;&lt;font face=&quot;宋体&quot;&gt;生物学词&lt;/font&gt;&lt;/b&gt;&lt;/span&gt;&lt;/div&gt;&lt;font style=&quot;font-size: 25px&quot;&gt;&lt;font style=&quot;font-size: 25px&quot;&gt;&lt;font style=&quot;font-family: &amp;#34;times new roman&amp;#34; ; font-size: 25px&quot;&gt;&lt;font style=&quot;font-size: 25px&quot;&gt;&lt;span style=&quot;background-color: rgb(255 , 176 , 197)&quot;&gt;GKD&lt;/span&gt;&amp;nbsp;&lt;/font&gt;&lt;span style=&quot;background-color: rgb(171 , 255 , 196)&quot;&gt;KDL&amp;nbsp;DLM&lt;/span&gt;&amp;nbsp;&lt;span style=&quot;background-color: rgb(176 , 173 , 255)&quot;&gt;LME&lt;/span&gt;&amp;nbsp;&lt;span style=&quot;background-color: rgb(171 , 255 , 196)&quot;&gt;MEK&amp;nbsp;EKV&lt;/span&gt;&amp;nbsp;&lt;span style=&quot;background-color: rgb(255 , 176 , 197)&quot;&gt;&lt;font style=&quot;font-size: 25px&quot;&gt;&lt;span&gt;KVK&amp;nbsp;&lt;/span&gt;&lt;/font&gt;VKS&amp;nbsp;KSP&amp;nbsp;&lt;font style=&quot;font-size: 25px&quot;&gt;&lt;span&gt;SPE&amp;nbsp;&lt;/span&gt;&lt;/font&gt;PEL&amp;nbsp;ELQ&amp;nbsp;LQA&amp;nbsp;&lt;font style=&quot;font-size: 25px&quot;&gt;&lt;b&gt;... ...&lt;/b&gt;&lt;/font&gt;&lt;/span&gt;&lt;br&gt;&lt;/font&gt;&lt;div style=&quot;font-family: &amp;#34;times new roman&amp;#34;&quot;&gt;&lt;div&gt;&lt;br&gt;&lt;/div&gt;&lt;div&gt;b)&lt;/div&gt;&lt;div&gt;D&amp;nbsp; &amp;nbsp;:&amp;nbsp; &amp;nbsp;&lt;span style=&quot;background-color: rgb(171 , 255 , 196)&quot;&gt;KDL&amp;nbsp;DLM MEK&amp;nbsp;EKV&lt;/span&gt;&lt;/div&gt;&lt;div&gt;&lt;span&gt;D&lt;/span&gt;*&amp;nbsp;&lt;span&gt;:&amp;nbsp; &amp;nbsp;&lt;/span&gt;&lt;span style=&quot;background-color: rgb(255 , 176 , 197)&quot;&gt;&lt;span&gt;GKD&amp;nbsp;&lt;/span&gt;&lt;span&gt;KVK&amp;nbsp;VKS&amp;nbsp;KSP&amp;nbsp;SPE&amp;nbsp;PEL&amp;nbsp;ELQ&amp;nbsp;LQA&amp;nbsp;&lt;/span&gt;&lt;b&gt;... ...&lt;/b&gt;&lt;/span&gt;&lt;br&gt;&lt;/div&gt;&lt;/div&gt;&lt;div style=&quot;font-family: &amp;#34;times new roman&amp;#34;&quot;&gt;&lt;span&gt;&lt;font style=&quot;font-size: 25px&quot;&gt;&lt;br&gt;&lt;/font&gt;&lt;/span&gt;&lt;/div&gt;&lt;div style=&quot;font-family: &amp;#34;times new roman&amp;#34;&quot;&gt;&lt;span&gt;&lt;font style=&quot;font-size: 25px&quot;&gt;c)&lt;/font&gt;&lt;/span&gt;&lt;/div&gt;&lt;div style=&quot;text-align: center&quot;&gt;&lt;font style=&quot;font-size: 25px&quot;&gt;&lt;font face=&quot;宋体&quot;&gt;&lt;b&gt;正样本&lt;/b&gt;&lt;/font&gt;&lt;font face=&quot;Times New Roman&quot;&gt;:(p,q)&lt;/font&gt;&lt;/font&gt;&lt;/div&gt;&lt;div style=&quot;font-family: &amp;#34;times new roman&amp;#34;&quot;&gt;(&lt;span style=&quot;background-color: rgb(176 , 173 , 255)&quot;&gt;LME&lt;/span&gt; , &lt;span style=&quot;background-color: rgb(171 , 255 , 196)&quot;&gt;KDL&lt;/span&gt;) , (&lt;span style=&quot;background-color: rgb(176 , 173 , 255)&quot;&gt;LME&lt;/span&gt; , &lt;span style=&quot;background-color: rgb(171 , 255 , 196)&quot;&gt;DLM&lt;/span&gt;) , (&lt;span style=&quot;background-color: rgb(176 , 173 , 255)&quot;&gt;LME&lt;/span&gt; , &lt;span style=&quot;background-color: rgb(171 , 255 , 196)&quot;&gt;MEK&lt;/span&gt;) , (&lt;span style=&quot;background-color: rgb(176 , 173 , 255)&quot;&gt;LME&lt;/span&gt; , &lt;span style=&quot;background-color: rgb(171 , 255 , 196)&quot;&gt;EKV&lt;/span&gt;)&lt;/div&gt;&lt;div&gt;&lt;font style=&quot;font-size: 25px&quot;&gt;&lt;font face=&quot;Times New Roman&quot;&gt;&amp;nbsp; &amp;nbsp; &amp;nbsp; &amp;nbsp; &amp;nbsp; &amp;nbsp; &amp;nbsp; &amp;nbsp; &amp;nbsp; &amp;nbsp; &amp;nbsp; &amp;nbsp; &amp;nbsp; &amp;nbsp; &amp;nbsp; &amp;nbsp; &amp;nbsp; &amp;nbsp; &amp;nbsp; &amp;nbsp; &amp;nbsp; &amp;nbsp; &amp;nbsp; &amp;nbsp; &amp;nbsp; &amp;nbsp; &amp;nbsp; &lt;/font&gt;&lt;b&gt;&lt;font face=&quot;宋体&quot;&gt;负样本&lt;/font&gt;&lt;/b&gt;&lt;font face=&quot;Times New Roman&quot;&gt;:(p,q*)&lt;/font&gt;&lt;/font&gt;&lt;/div&gt;&lt;div style=&quot;font-family: &amp;#34;times new roman&amp;#34;&quot;&gt;&lt;font style=&quot;font-size: 25px&quot;&gt;&lt;font style=&quot;font-size: 25px&quot;&gt;(&lt;span style=&quot;background-color: rgb(176 , 173 , 255)&quot;&gt;LME&lt;/span&gt; , &lt;span style=&quot;background-color: rgb(255 , 176 , 197)&quot;&gt;GKD&lt;/span&gt;) , (&lt;span style=&quot;background-color: rgb(176 , 173 , 255)&quot;&gt;LME&lt;/span&gt; , &lt;span style=&quot;background-color: rgb(255 , 176 , 197)&quot;&gt;KVK&lt;/span&gt;) , (&lt;span style=&quot;background-color: rgb(176 , 173 , 255)&quot;&gt;LME&lt;/span&gt; , &lt;span style=&quot;background-color: rgb(255 , 176 , 197)&quot;&gt;VKS&lt;/span&gt;) , (&lt;span style=&quot;background-color: rgb(176 , 173 , 255)&quot;&gt;LME&lt;/span&gt; , &lt;span style=&quot;background-color: rgb(255 , 176 , 197)&quot;&gt;KSP&lt;/span&gt;&lt;/font&gt;) &lt;font style=&quot;font-size: 25px&quot;&gt;&lt;b&gt;... ...&lt;/b&gt;&lt;/font&gt;&lt;/font&gt;&lt;/div&gt;&lt;/font&gt;&lt;/font&gt;" style="text;html=1;strokeColor=none;fillColor=none;align=left;verticalAlign=top;whiteSpace=wrap;rounded=0;" parent="1" vertex="1">
          <mxGeometry x="1352" y="997" width="802" height="481" as="geometry" />
        </mxCell>
      </root>
    </mxGraphModel>
  </diagram>
  <diagram id="_O1bqB2A0xj8yTHRGAM3" name="第 3 页">
    <mxGraphModel dx="620" dy="750" grid="1" gridSize="10" guides="1" tooltips="1" connect="1" arrows="1" fold="1" page="1" pageScale="1" pageWidth="827" pageHeight="1169" math="1" shadow="0">
      <root>
        <mxCell id="BR9kLmMROwpdJDide8Ju-0" />
        <mxCell id="BR9kLmMROwpdJDide8Ju-1" parent="BR9kLmMROwpdJDide8Ju-0" />
        <mxCell id="qx5ZzFrxjILhsyTw9AtO-0" value="&lt;div style=&quot;text-align: left ; font-size: 25px&quot;&gt;&lt;font face=&quot;Times New Roman&quot;&gt;&amp;nbsp;&lt;/font&gt;&lt;/div&gt;&lt;div style=&quot;text-align: left ; font-size: 25px&quot;&gt;&lt;font face=&quot;Times New Roman&quot; style=&quot;font-size: 25px&quot;&gt;&amp;nbsp; &amp;nbsp; &amp;nbsp; &amp;nbsp; &amp;nbsp; &amp;nbsp; &amp;nbsp; &amp;nbsp; &amp;nbsp; &amp;nbsp; &amp;nbsp; &amp;nbsp; &amp;nbsp; &amp;nbsp; &amp;nbsp; &amp;nbsp; &amp;nbsp; &amp;nbsp; &amp;nbsp; &lt;b&gt;Original Sequence&lt;/b&gt;&lt;/font&gt;&lt;/div&gt;&lt;div style=&quot;font-size: 25px&quot;&gt;&lt;font face=&quot;Times New Roman&quot; style=&quot;font-size: 25px&quot;&gt;&lt;span&gt;GKDLMEKVKSPELQAEAKSYFEKSKEQLTPLIKKAGTELVN&lt;/span&gt;&lt;/font&gt;&lt;/div&gt;&lt;font face=&quot;Times New Roman&quot; style=&quot;font-size: 25px&quot;&gt;&lt;font style=&quot;font-size: 25px&quot;&gt;&lt;div style=&quot;text-align: center&quot;&gt;&lt;span&gt;&lt;font style=&quot;font-size: 25px&quot;&gt;&lt;b&gt;Biological Words&lt;/b&gt;&lt;/font&gt;&lt;/span&gt;&lt;/div&gt;&lt;font style=&quot;font-size: 25px&quot;&gt;&lt;font style=&quot;font-size: 25px&quot;&gt;&lt;span style=&quot;background-color: rgb(255 , 176 , 197)&quot;&gt;GKD&lt;/span&gt;&amp;nbsp;&lt;/font&gt;&lt;span style=&quot;background-color: rgb(171 , 255 , 196)&quot;&gt;KDL&amp;nbsp;DLM&lt;/span&gt;&amp;nbsp;&lt;span style=&quot;background-color: rgb(176 , 173 , 255)&quot;&gt;LME&lt;/span&gt;&amp;nbsp;&lt;span style=&quot;background-color: rgb(171 , 255 , 196)&quot;&gt;MEK&amp;nbsp;EKV&lt;/span&gt;&amp;nbsp;&lt;span style=&quot;background-color: rgb(255 , 176 , 197)&quot;&gt;&lt;font style=&quot;font-size: 25px&quot;&gt;&lt;span&gt;KVK&amp;nbsp;&lt;/span&gt;&lt;/font&gt;VKS&amp;nbsp;KSP&amp;nbsp;&lt;font style=&quot;font-size: 25px&quot;&gt;&lt;span&gt;SPE&amp;nbsp;&lt;/span&gt;&lt;/font&gt;PEL&amp;nbsp;&lt;font style=&quot;font-size: 25px&quot;&gt;&lt;b&gt;... ...&lt;/b&gt;&lt;/font&gt;&lt;/span&gt;&lt;br&gt;&lt;/font&gt;&lt;div&gt;&lt;div&gt;&lt;br&gt;&lt;/div&gt;&lt;div&gt;&amp;nbsp;&lt;/div&gt;&lt;div&gt;&lt;b&gt;D&amp;nbsp; &amp;nbsp;&lt;/b&gt;:&amp;nbsp; &amp;nbsp;&lt;span style=&quot;background-color: rgb(171 , 255 , 196)&quot;&gt;KDL&amp;nbsp;DLM MEK&amp;nbsp;EKV&lt;/span&gt;&lt;/div&gt;&lt;div&gt;&lt;b&gt;&lt;span&gt;D&lt;/span&gt;*&amp;nbsp;&lt;/b&gt;&lt;span&gt;:&amp;nbsp; &amp;nbsp;&lt;/span&gt;&lt;span style=&quot;background-color: rgb(255 , 176 , 197)&quot;&gt;&lt;span&gt;GKD&amp;nbsp;&lt;/span&gt;&lt;span&gt;KVK&amp;nbsp;VKS&amp;nbsp;KSP&amp;nbsp;SPE&amp;nbsp;PEL&amp;nbsp;ELQ&amp;nbsp;LQA&amp;nbsp;&lt;/span&gt;&lt;b&gt;... ...&lt;/b&gt;&lt;/span&gt;&lt;br&gt;&lt;/div&gt;&lt;/div&gt;&lt;div&gt;&lt;span&gt;&lt;font style=&quot;font-size: 25px&quot;&gt;&lt;br&gt;&lt;/font&gt;&lt;/span&gt;&lt;/div&gt;&lt;div&gt;&amp;nbsp;&lt;/div&gt;&lt;div style=&quot;text-align: center&quot;&gt;&lt;font style=&quot;font-size: 25px&quot;&gt;&lt;b&gt;Positive Example:&amp;nbsp;&lt;/b&gt; &amp;nbsp; &amp;nbsp; &amp;nbsp; &amp;nbsp; &amp;nbsp; &amp;nbsp;&amp;nbsp;&lt;/font&gt;&lt;/div&gt;&lt;div&gt;(&lt;span style=&quot;background-color: rgb(176 , 173 , 255)&quot;&gt;LME&lt;/span&gt; , &lt;span style=&quot;background-color: rgb(171 , 255 , 196)&quot;&gt;KDL&lt;/span&gt;) , (&lt;span style=&quot;background-color: rgb(176 , 173 , 255)&quot;&gt;LME&lt;/span&gt; , &lt;span style=&quot;background-color: rgb(171 , 255 , 196)&quot;&gt;DLM&lt;/span&gt;) , (&lt;span style=&quot;background-color: rgb(176 , 173 , 255)&quot;&gt;LME&lt;/span&gt; , &lt;span style=&quot;background-color: rgb(171 , 255 , 196)&quot;&gt;MEK&lt;/span&gt;) , (&lt;span style=&quot;background-color: rgb(176 , 173 , 255)&quot;&gt;LME&lt;/span&gt; , &lt;span style=&quot;background-color: rgb(171 , 255 , 196)&quot;&gt;EKV&lt;/span&gt;)&lt;/div&gt;&lt;div&gt;&lt;font style=&quot;font-size: 25px&quot;&gt;&amp;nbsp; &amp;nbsp; &amp;nbsp; &amp;nbsp; &amp;nbsp; &amp;nbsp; &amp;nbsp; &amp;nbsp; &amp;nbsp; &amp;nbsp; &amp;nbsp; &amp;nbsp; &amp;nbsp; &amp;nbsp; &amp;nbsp; &lt;b&gt;Negative Example:&lt;/b&gt;&amp;nbsp; &amp;nbsp; &amp;nbsp; &amp;nbsp; &amp;nbsp; &amp;nbsp; &amp;nbsp; &amp;nbsp; &amp;nbsp; &amp;nbsp; &amp;nbsp; &amp;nbsp; &amp;nbsp; &amp;nbsp; &amp;nbsp; &amp;nbsp;&amp;nbsp;&lt;/font&gt;&lt;/div&gt;&lt;div&gt;&lt;font style=&quot;font-size: 25px&quot;&gt;&lt;font style=&quot;font-size: 25px&quot;&gt;(&lt;span style=&quot;background-color: rgb(176 , 173 , 255)&quot;&gt;LME&lt;/span&gt; , &lt;span style=&quot;background-color: rgb(255 , 176 , 197)&quot;&gt;GKD&lt;/span&gt;) , (&lt;span style=&quot;background-color: rgb(176 , 173 , 255)&quot;&gt;LME&lt;/span&gt; , &lt;span style=&quot;background-color: rgb(255 , 176 , 197)&quot;&gt;KVK&lt;/span&gt;) , (&lt;span style=&quot;background-color: rgb(176 , 173 , 255)&quot;&gt;LME&lt;/span&gt; , &lt;span style=&quot;background-color: rgb(255 , 176 , 197)&quot;&gt;VKS&lt;/span&gt;) , (&lt;span style=&quot;background-color: rgb(176 , 173 , 255)&quot;&gt;LME&lt;/span&gt; , &lt;span style=&quot;background-color: rgb(255 , 176 , 197)&quot;&gt;KSP&lt;/span&gt;&lt;/font&gt;) &lt;font style=&quot;font-size: 25px&quot;&gt;&lt;b&gt;... ...&lt;/b&gt;&lt;/font&gt;&lt;/font&gt;&lt;/div&gt;&lt;/font&gt;&lt;/font&gt;" style="text;html=1;strokeColor=none;fillColor=none;align=left;verticalAlign=top;whiteSpace=wrap;rounded=0;" parent="BR9kLmMROwpdJDide8Ju-1" vertex="1">
          <mxGeometry x="839" y="120" width="681" height="460" as="geometry" />
        </mxCell>
        <mxCell id="YJajQzr7FkBQ4d8G3Xfk-0" value="&lt;font style=&quot;font-size: 22px&quot;&gt;$$\textbf(w_a,w_*\textbf)$$&lt;/font&gt;" style="text;html=1;strokeColor=none;fillColor=none;align=center;verticalAlign=middle;whiteSpace=wrap;rounded=0;" parent="BR9kLmMROwpdJDide8Ju-1" vertex="1">
          <mxGeometry x="1240" y="514" width="80" height="40" as="geometry" />
        </mxCell>
        <mxCell id="YJajQzr7FkBQ4d8G3Xfk-1" value="&lt;font style=&quot;font-size: 22px&quot;&gt;$$\textbf(w_a,w_{a+b}\textbf)$$&lt;/font&gt;" style="text;html=1;strokeColor=none;fillColor=none;align=center;verticalAlign=middle;whiteSpace=wrap;rounded=0;" parent="BR9kLmMROwpdJDide8Ju-1" vertex="1">
          <mxGeometry x="1250" y="454" width="82" height="40" as="geometry" />
        </mxCell>
        <mxCell id="2w3FQL5JnouRDUPWxEFy-0" value="&lt;font face=&quot;Times New Roman&quot; style=&quot;font-size: 25px&quot;&gt;&lt;b&gt;Positive Example:&amp;nbsp;&lt;/b&gt;&lt;/font&gt;" style="text;html=1;strokeColor=none;fillColor=none;align=center;verticalAlign=middle;whiteSpace=wrap;rounded=0;" parent="BR9kLmMROwpdJDide8Ju-1" vertex="1">
          <mxGeometry x="920" y="655" width="250" height="50" as="geometry" />
        </mxCell>
        <mxCell id="mk5OFj6v9bcvY-WtVdZQ-0" value="&lt;div style=&quot;text-align: left ; font-size: 13px&quot;&gt;&lt;font style=&quot;font-size: 13px&quot;&gt;&lt;font style=&quot;font-size: 13px&quot;&gt;&lt;font face=&quot;Times New Roman&quot; style=&quot;font-size: 13px&quot;&gt;&amp;nbsp; &amp;nbsp; &amp;nbsp; &amp;nbsp; &amp;nbsp; &amp;nbsp; &amp;nbsp; &amp;nbsp; &amp;nbsp; &amp;nbsp; &amp;nbsp; &amp;nbsp; &amp;nbsp; &amp;nbsp; &amp;nbsp; &amp;nbsp; &amp;nbsp; &amp;nbsp; &amp;nbsp; &amp;nbsp; &amp;nbsp; &amp;nbsp; &amp;nbsp; &amp;nbsp; &amp;nbsp; &amp;nbsp; &lt;/font&gt;&lt;/font&gt;&lt;font style=&quot;font-size: 13px&quot;&gt;原始序列&lt;/font&gt;&lt;br&gt;&lt;/font&gt;&lt;/div&gt;&lt;div style=&quot;font-size: 13px&quot;&gt;&lt;font style=&quot;font-size: 13px&quot;&gt;&lt;font style=&quot;font-family: &amp;#34;times new roman&amp;#34; ; font-size: 13px&quot;&gt;&lt;span&gt;GKDLMEKVKSPELQAEAKSYFEKSKEQLTPLIKKAGTELVNFLSYFVEL&amp;nbsp; &amp;nbsp; &amp;nbsp; &amp;nbsp; &amp;nbsp; &amp;nbsp; &amp;nbsp; &amp;nbsp; &amp;nbsp; &amp;nbsp; &amp;nbsp; &amp;nbsp; &amp;nbsp; &amp;nbsp; &amp;nbsp; &amp;nbsp; &amp;nbsp; &amp;nbsp; &amp;nbsp; &amp;nbsp; &amp;nbsp; &amp;nbsp; &amp;nbsp; &amp;nbsp; &amp;nbsp; &amp;nbsp; &amp;nbsp; &lt;/span&gt;&lt;/font&gt;&lt;span style=&quot;text-align: center&quot;&gt;&lt;font style=&quot;font-size: 13px&quot;&gt;生物学词&lt;/font&gt;&lt;/span&gt;&lt;/font&gt;&lt;/div&gt;&lt;font style=&quot;font-size: 13px&quot;&gt;&lt;font style=&quot;font-size: 13px&quot;&gt;&lt;font style=&quot;font-family: &amp;#34;times new roman&amp;#34; ; font-size: 13px&quot;&gt;&lt;font style=&quot;font-size: 13px&quot;&gt;&lt;span style=&quot;background-color: rgb(255 , 176 , 197)&quot;&gt;GKD&lt;/span&gt;&amp;nbsp;&lt;/font&gt;&lt;span style=&quot;background-color: rgb(171 , 255 , 196)&quot;&gt;KDL&amp;nbsp;DLM&lt;/span&gt;&amp;nbsp;&lt;span style=&quot;background-color: rgb(176 , 173 , 255)&quot;&gt;LME&lt;/span&gt;&amp;nbsp;&lt;span style=&quot;background-color: rgb(171 , 255 , 196)&quot;&gt;MEK&amp;nbsp;EKV&lt;/span&gt;&amp;nbsp;&lt;span style=&quot;background-color: rgb(255 , 176 , 197)&quot;&gt;&lt;font style=&quot;font-size: 13px&quot;&gt;&lt;span&gt;KVK&amp;nbsp;&lt;/span&gt;&lt;/font&gt;VKS&amp;nbsp;KSP&amp;nbsp;&lt;font style=&quot;font-size: 13px&quot;&gt;&lt;span&gt;SPE&amp;nbsp;&lt;/span&gt;&lt;/font&gt;PEL&amp;nbsp;ELQ&amp;nbsp;LQA&amp;nbsp;&lt;font style=&quot;font-size: 13px&quot;&gt;... ...&lt;/font&gt;&lt;/span&gt;&lt;br&gt;&lt;/font&gt;&lt;div&gt;&lt;div style=&quot;font-family: &amp;#34;times new roman&amp;#34;&quot;&gt;&lt;br&gt;&lt;/div&gt;&lt;div style=&quot;font-family: &amp;#34;times new roman&amp;#34;&quot;&gt;&lt;span&gt;D&amp;nbsp; &amp;nbsp;:&amp;nbsp; &amp;nbsp;&lt;/span&gt;&lt;span style=&quot;background-color: rgb(171 , 255 , 196)&quot;&gt;KDL&amp;nbsp;DLM MEK&amp;nbsp;EKV&lt;/span&gt;&lt;br&gt;&lt;/div&gt;&lt;div style=&quot;font-family: &amp;#34;times new roman&amp;#34;&quot;&gt;&lt;span&gt;D&lt;/span&gt;*&amp;nbsp;&lt;span&gt;:&amp;nbsp; &amp;nbsp;&lt;/span&gt;&lt;span style=&quot;background-color: rgb(255 , 176 , 197)&quot;&gt;&lt;span&gt;GKD&amp;nbsp;&lt;/span&gt;&lt;span&gt;KVK&amp;nbsp;VKS&amp;nbsp;KSP&amp;nbsp;SPE&amp;nbsp;PEL&amp;nbsp;ELQ&amp;nbsp;LQA&amp;nbsp;&lt;/span&gt;... ...&lt;/span&gt;&lt;/div&gt;&lt;div style=&quot;font-family: &amp;#34;times new roman&amp;#34;&quot;&gt;&lt;font style=&quot;text-align: center ; font-size: 13px&quot;&gt;&lt;br&gt;&lt;/font&gt;&lt;/div&gt;&lt;div&gt;&lt;font style=&quot;text-align: center ; font-size: 13px&quot;&gt;&lt;font face=&quot;times new roman&quot; style=&quot;font-size: 13px&quot;&gt;&amp;nbsp; &amp;nbsp; &amp;nbsp; &amp;nbsp; &amp;nbsp; &amp;nbsp; &amp;nbsp; &amp;nbsp; &amp;nbsp; &amp;nbsp; &amp;nbsp; &amp;nbsp; &amp;nbsp; &amp;nbsp; &amp;nbsp; &amp;nbsp; &amp;nbsp; &amp;nbsp; &amp;nbsp; &amp;nbsp; &amp;nbsp; &amp;nbsp; &amp;nbsp; &amp;nbsp; &amp;nbsp; &amp;nbsp; &lt;/font&gt;正样本&lt;/font&gt;&lt;font face=&quot;Times New Roman&quot; style=&quot;font-family: &amp;#34;times new roman&amp;#34; ; text-align: center ; font-size: 13px&quot;&gt;:(p,q)&lt;/font&gt;&lt;/div&gt;&lt;/div&gt;&lt;div style=&quot;font-family: &amp;#34;times new roman&amp;#34;&quot;&gt;(&lt;span style=&quot;background-color: rgb(176 , 173 , 255)&quot;&gt;LME&lt;/span&gt; , &lt;span style=&quot;background-color: rgb(171 , 255 , 196)&quot;&gt;KDL&lt;/span&gt;) , (&lt;span style=&quot;background-color: rgb(176 , 173 , 255)&quot;&gt;LME&lt;/span&gt; , &lt;span style=&quot;background-color: rgb(171 , 255 , 196)&quot;&gt;DLM&lt;/span&gt;) , (&lt;span style=&quot;background-color: rgb(176 , 173 , 255)&quot;&gt;LME&lt;/span&gt; , &lt;span style=&quot;background-color: rgb(171 , 255 , 196)&quot;&gt;MEK&lt;/span&gt;) , (&lt;span style=&quot;background-color: rgb(176 , 173 , 255)&quot;&gt;LME&lt;/span&gt; , &lt;span style=&quot;background-color: rgb(171 , 255 , 196)&quot;&gt;EKV&lt;/span&gt;)&lt;/div&gt;&lt;div&gt;&lt;font style=&quot;font-size: 13px&quot;&gt;&lt;font style=&quot;font-size: 13px&quot;&gt;&lt;font face=&quot;Times New Roman&quot; style=&quot;font-size: 13px&quot;&gt;&amp;nbsp; &amp;nbsp; &amp;nbsp; &amp;nbsp; &amp;nbsp; &amp;nbsp; &amp;nbsp; &amp;nbsp; &amp;nbsp; &amp;nbsp; &amp;nbsp; &amp;nbsp; &amp;nbsp; &amp;nbsp; &amp;nbsp; &amp;nbsp; &amp;nbsp; &amp;nbsp; &amp;nbsp; &amp;nbsp; &amp;nbsp; &amp;nbsp; &amp;nbsp; &amp;nbsp; &amp;nbsp; &amp;nbsp; &lt;/font&gt;&lt;/font&gt;&lt;font style=&quot;font-size: 13px&quot;&gt;负样本&lt;/font&gt;&lt;font style=&quot;font-family: &amp;#34;times new roman&amp;#34; ; font-size: 13px&quot;&gt;:(p,q*)&lt;/font&gt;&lt;/font&gt;&lt;/div&gt;&lt;div style=&quot;font-family: &amp;#34;times new roman&amp;#34;&quot;&gt;&lt;font style=&quot;font-size: 13px&quot;&gt;&lt;font style=&quot;font-size: 13px&quot;&gt;(&lt;span style=&quot;background-color: rgb(176 , 173 , 255)&quot;&gt;LME&lt;/span&gt; , &lt;span style=&quot;background-color: rgb(255 , 176 , 197)&quot;&gt;GKD&lt;/span&gt;) , (&lt;span style=&quot;background-color: rgb(176 , 173 , 255)&quot;&gt;LME&lt;/span&gt; , &lt;span style=&quot;background-color: rgb(255 , 176 , 197)&quot;&gt;KVK&lt;/span&gt;) , (&lt;span style=&quot;background-color: rgb(176 , 173 , 255)&quot;&gt;LME&lt;/span&gt; , &lt;span style=&quot;background-color: rgb(255 , 176 , 197)&quot;&gt;VKS&lt;/span&gt;) , (&lt;span style=&quot;background-color: rgb(176 , 173 , 255)&quot;&gt;LME&lt;/span&gt; , &lt;span style=&quot;background-color: rgb(255 , 176 , 197)&quot;&gt;KSP&lt;/span&gt;&lt;/font&gt;) &lt;font style=&quot;font-size: 13px&quot;&gt;... ...&lt;/font&gt;&lt;/font&gt;&lt;/div&gt;&lt;/font&gt;&lt;/font&gt;" style="text;html=1;strokeColor=none;fillColor=none;align=left;verticalAlign=top;whiteSpace=wrap;rounded=0;fontFamily=宋体;" vertex="1" parent="BR9kLmMROwpdJDide8Ju-1">
          <mxGeometry x="880" y="780" width="418" height="193" as="geometry" />
        </mxCell>
      </root>
    </mxGraphModel>
  </diagram>
  <diagram id="MG4Olp5LS2CLaVesZvnk" name="第 2 页">
    <mxGraphModel dx="1447" dy="750" grid="1" gridSize="10" guides="1" tooltips="1" connect="1" arrows="1" fold="1" page="1" pageScale="1" pageWidth="1169" pageHeight="827" math="0" shadow="0">
      <root>
        <mxCell id="jxNAtU74u_mBxBiVjwlJ-0" />
        <mxCell id="jxNAtU74u_mBxBiVjwlJ-1" parent="jxNAtU74u_mBxBiVjwlJ-0" />
      </root>
    </mxGraphModel>
  </diagram>
</mxfile>
